<mxfile host="65bd71144e">
    <diagram id="F-tb36YVT-pgPO1c2nSs" name="Page-1">
        <mxGraphModel dx="1590" dy="5669" grid="1" gridSize="10" guides="1" tooltips="1" connect="1" arrows="1" fold="1" page="1" pageScale="1" pageWidth="3300" pageHeight="4681" math="0" shadow="0">
            <root>
                <mxCell id="0"/>
                <mxCell id="1" parent="0"/>
                <mxCell id="18" style="edgeStyle=none;html=1;" parent="1" source="4" edge="1">
                    <mxGeometry relative="1" as="geometry">
                        <mxPoint x="960" y="230" as="targetPoint"/>
                    </mxGeometry>
                </mxCell>
                <mxCell id="4" value="Ankietyzacja pracownika" style="whiteSpace=wrap;html=1;" parent="1" vertex="1">
                    <mxGeometry x="730" y="200" width="120" height="60" as="geometry"/>
                </mxCell>
                <mxCell id="5" value="Zarząd firmy" style="text;html=1;align=center;verticalAlign=middle;resizable=0;points=[];autosize=1;strokeColor=none;fillColor=none;rotation=-90;" parent="1" vertex="1">
                    <mxGeometry x="80" y="220" width="80" height="20" as="geometry"/>
                </mxCell>
                <mxCell id="10" value="" style="endArrow=none;dashed=1;html=1;" parent="1" edge="1">
                    <mxGeometry width="50" height="50" relative="1" as="geometry">
                        <mxPoint x="18" y="540" as="sourcePoint"/>
                        <mxPoint x="2820" y="540" as="targetPoint"/>
                    </mxGeometry>
                </mxCell>
                <mxCell id="11" value="" style="endArrow=none;dashed=1;html=1;" parent="1" edge="1">
                    <mxGeometry width="50" height="50" relative="1" as="geometry">
                        <mxPoint x="10" y="-50" as="sourcePoint"/>
                        <mxPoint x="2820" y="-50" as="targetPoint"/>
                    </mxGeometry>
                </mxCell>
                <mxCell id="21" style="edgeStyle=none;html=1;entryX=0;entryY=0.5;entryDx=0;entryDy=0;" parent="1" source="19" target="20" edge="1">
                    <mxGeometry relative="1" as="geometry"/>
                </mxCell>
                <mxCell id="19" value="Analiza potrzeby" style="rounded=0;whiteSpace=wrap;html=1;" parent="1" vertex="1">
                    <mxGeometry x="920" y="200" width="120" height="60" as="geometry"/>
                </mxCell>
                <mxCell id="20" value="" style="rhombus;whiteSpace=wrap;html=1;" parent="1" vertex="1">
                    <mxGeometry x="1101" y="200" width="60" height="60" as="geometry"/>
                </mxCell>
                <mxCell id="31" style="edgeStyle=none;rounded=0;html=1;entryX=0.5;entryY=1;entryDx=0;entryDy=0;" parent="1" source="24" target="29" edge="1">
                    <mxGeometry relative="1" as="geometry">
                        <Array as="points">
                            <mxPoint x="1480" y="350"/>
                        </Array>
                    </mxGeometry>
                </mxCell>
                <mxCell id="24" value="Definicja wymagania (w znaczeniu projektowym)" style="rounded=0;whiteSpace=wrap;html=1;" parent="1" vertex="1">
                    <mxGeometry x="1250" y="320" width="120" height="60" as="geometry"/>
                </mxCell>
                <mxCell id="25" value="" style="endArrow=none;html=1;rounded=0;entryX=0.5;entryY=1;entryDx=0;entryDy=0;exitX=0;exitY=0.5;exitDx=0;exitDy=0;" parent="1" source="24" target="20" edge="1">
                    <mxGeometry width="50" height="50" relative="1" as="geometry">
                        <mxPoint x="1070" y="330" as="sourcePoint"/>
                        <mxPoint x="1120" y="280" as="targetPoint"/>
                        <Array as="points">
                            <mxPoint x="1131" y="350"/>
                        </Array>
                    </mxGeometry>
                </mxCell>
                <mxCell id="34" value="Potrzeba uzasadniona" style="edgeLabel;html=1;align=center;verticalAlign=middle;resizable=0;points=[];" parent="25" vertex="1" connectable="0">
                    <mxGeometry x="-0.1401" y="2" relative="1" as="geometry">
                        <mxPoint x="-18" y="8" as="offset"/>
                    </mxGeometry>
                </mxCell>
                <mxCell id="28" value="" style="group" parent="1" vertex="1" connectable="0">
                    <mxGeometry x="1116" y="120" width="30" height="60" as="geometry"/>
                </mxCell>
                <mxCell id="27" value="" style="endArrow=none;html=1;rounded=0;" parent="28" edge="1">
                    <mxGeometry width="50" height="50" relative="1" as="geometry">
                        <mxPoint y="60" as="sourcePoint"/>
                        <mxPoint x="30" y="30" as="targetPoint"/>
                    </mxGeometry>
                </mxCell>
                <mxCell id="32" style="edgeStyle=none;rounded=0;html=1;entryX=0.5;entryY=0;entryDx=0;entryDy=0;exitX=0.5;exitY=0;exitDx=0;exitDy=0;" parent="1" source="42" target="4" edge="1">
                    <mxGeometry relative="1" as="geometry">
                        <Array as="points">
                            <mxPoint x="1620" y="30"/>
                            <mxPoint x="1570" y="30"/>
                            <mxPoint x="790" y="30"/>
                            <mxPoint x="790" y="180"/>
                        </Array>
                        <mxPoint x="780" y="200" as="targetPoint"/>
                    </mxGeometry>
                </mxCell>
                <mxCell id="47" value="Tak" style="edgeLabel;html=1;align=center;verticalAlign=middle;resizable=0;points=[];" parent="32" vertex="1" connectable="0">
                    <mxGeometry x="-0.5491" y="2" relative="1" as="geometry">
                        <mxPoint x="104" y="148" as="offset"/>
                    </mxGeometry>
                </mxCell>
                <mxCell id="44" style="edgeStyle=none;rounded=0;html=1;entryX=0;entryY=0.5;entryDx=0;entryDy=0;" parent="1" source="29" target="42" edge="1">
                    <mxGeometry relative="1" as="geometry"/>
                </mxCell>
                <mxCell id="29" value="Czy zostali pracownicy? (do ankietyzacji)" style="rounded=0;whiteSpace=wrap;html=1;" parent="1" vertex="1">
                    <mxGeometry x="1420" y="200" width="120" height="60" as="geometry"/>
                </mxCell>
                <mxCell id="30" value="" style="endArrow=classic;html=1;rounded=0;exitX=0.5;exitY=0;exitDx=0;exitDy=0;entryX=0.5;entryY=0;entryDx=0;entryDy=0;" parent="1" source="20" target="29" edge="1">
                    <mxGeometry width="50" height="50" relative="1" as="geometry">
                        <mxPoint x="1130" y="180" as="sourcePoint"/>
                        <mxPoint x="1180" y="130" as="targetPoint"/>
                        <Array as="points">
                            <mxPoint x="1131" y="120"/>
                            <mxPoint x="1480" y="120"/>
                        </Array>
                    </mxGeometry>
                </mxCell>
                <mxCell id="35" value="Potrzeba nieuzasadniona" style="edgeLabel;html=1;align=center;verticalAlign=middle;resizable=0;points=[];" parent="30" vertex="1" connectable="0">
                    <mxGeometry x="-0.1362" y="1" relative="1" as="geometry">
                        <mxPoint x="-140" y="-9" as="offset"/>
                    </mxGeometry>
                </mxCell>
                <mxCell id="39" style="edgeStyle=none;rounded=0;html=1;exitX=1;exitY=0.5;exitDx=0;exitDy=0;entryX=0;entryY=0.5;entryDx=0;entryDy=0;" parent="1" source="2" target="38" edge="1">
                    <mxGeometry relative="1" as="geometry">
                        <mxPoint x="430" y="230" as="targetPoint"/>
                    </mxGeometry>
                </mxCell>
                <mxCell id="2" value="Przeprowadzenie Konferencji" style="rounded=0;whiteSpace=wrap;html=1;container=0;" parent="1" vertex="1">
                    <mxGeometry x="290" y="200" width="120" height="60" as="geometry"/>
                </mxCell>
                <mxCell id="8" style="edgeStyle=none;html=1;entryX=0;entryY=0.5;entryDx=0;entryDy=0;startArrow=none;" parent="1" source="68" target="2" edge="1">
                    <mxGeometry relative="1" as="geometry">
                        <mxPoint x="170.00000000000023" y="230" as="sourcePoint"/>
                    </mxGeometry>
                </mxCell>
                <mxCell id="40" style="edgeStyle=none;rounded=0;html=1;exitX=1;exitY=0.5;exitDx=0;exitDy=0;entryX=0;entryY=0.5;entryDx=0;entryDy=0;" parent="1" source="38" target="4" edge="1">
                    <mxGeometry relative="1" as="geometry"/>
                </mxCell>
                <mxCell id="43" style="edgeStyle=none;rounded=0;html=1;exitX=0.5;exitY=1;exitDx=0;exitDy=0;" parent="1" source="38" target="73" edge="1">
                    <mxGeometry relative="1" as="geometry">
                        <mxPoint x="1800" y="380" as="targetPoint"/>
                        <Array as="points">
                            <mxPoint x="500" y="450"/>
                            <mxPoint x="1960" y="450"/>
                        </Array>
                    </mxGeometry>
                </mxCell>
                <mxCell id="38" value="" style="rhombus;whiteSpace=wrap;html=1;" parent="1" vertex="1">
                    <mxGeometry x="470" y="200" width="60" height="60" as="geometry"/>
                </mxCell>
                <mxCell id="41" value="Konieczność ankietyzacji&lt;br&gt;&amp;nbsp;i zebrania wymagań" style="text;html=1;align=center;verticalAlign=middle;resizable=0;points=[];autosize=1;strokeColor=none;fillColor=none;" parent="1" vertex="1">
                    <mxGeometry x="550" y="190" width="150" height="30" as="geometry"/>
                </mxCell>
                <mxCell id="48" style="edgeStyle=none;rounded=0;html=1;" parent="1" source="42" edge="1">
                    <mxGeometry relative="1" as="geometry">
                        <mxPoint x="1710" y="230" as="targetPoint"/>
                    </mxGeometry>
                </mxCell>
                <mxCell id="49" value="Nie" style="edgeLabel;html=1;align=center;verticalAlign=middle;resizable=0;points=[];" parent="48" vertex="1" connectable="0">
                    <mxGeometry x="-0.4167" relative="1" as="geometry">
                        <mxPoint x="3" y="-10" as="offset"/>
                    </mxGeometry>
                </mxCell>
                <mxCell id="42" value="" style="rhombus;whiteSpace=wrap;html=1;" parent="1" vertex="1">
                    <mxGeometry x="1590" y="200" width="60" height="60" as="geometry"/>
                </mxCell>
                <mxCell id="46" value="Procesy znane, brak konieczności ankietyzacji" style="text;html=1;align=center;verticalAlign=middle;resizable=0;points=[];autosize=1;strokeColor=none;fillColor=none;" parent="1" vertex="1">
                    <mxGeometry x="440" y="460" width="260" height="20" as="geometry"/>
                </mxCell>
                <mxCell id="51" style="edgeStyle=none;rounded=0;html=1;entryX=0;entryY=0.5;entryDx=0;entryDy=0;" parent="1" source="50" target="73" edge="1">
                    <mxGeometry relative="1" as="geometry">
                        <mxPoint x="1890" y="230" as="targetPoint"/>
                    </mxGeometry>
                </mxCell>
                <mxCell id="50" value="Kolekcjonowanie wymagań" style="rounded=0;whiteSpace=wrap;html=1;" parent="1" vertex="1">
                    <mxGeometry x="1710" y="200" width="120" height="60" as="geometry"/>
                </mxCell>
                <mxCell id="58" style="edgeStyle=none;rounded=0;html=1;" parent="1" source="57" target="59" edge="1">
                    <mxGeometry relative="1" as="geometry">
                        <mxPoint x="2270" y="230" as="targetPoint"/>
                    </mxGeometry>
                </mxCell>
                <mxCell id="57" value="Konsultacja z zarządem firmy podwykonawcy" style="rounded=0;whiteSpace=wrap;html=1;" parent="1" vertex="1">
                    <mxGeometry x="2070" y="200" width="120" height="60" as="geometry"/>
                </mxCell>
                <mxCell id="60" style="edgeStyle=none;rounded=0;html=1;entryX=0;entryY=0.5;entryDx=0;entryDy=0;" parent="1" source="59" target="62" edge="1">
                    <mxGeometry relative="1" as="geometry">
                        <mxPoint x="2450" y="230" as="targetPoint"/>
                    </mxGeometry>
                </mxCell>
                <mxCell id="59" value="Projekt możliwy do zrealizowania" style="rounded=0;whiteSpace=wrap;html=1;" parent="1" vertex="1">
                    <mxGeometry x="2250" y="200" width="120" height="60" as="geometry"/>
                </mxCell>
                <mxCell id="63" style="edgeStyle=none;rounded=0;html=1;entryX=0.5;entryY=0;entryDx=0;entryDy=0;exitX=0.5;exitY=0;exitDx=0;exitDy=0;" parent="1" source="62" target="2" edge="1">
                    <mxGeometry relative="1" as="geometry">
                        <mxPoint x="350" y="-30" as="targetPoint"/>
                        <Array as="points">
                            <mxPoint x="2480" y="-30"/>
                            <mxPoint x="350" y="-30"/>
                        </Array>
                    </mxGeometry>
                </mxCell>
                <mxCell id="64" value="Negatywna opinia" style="edgeLabel;html=1;align=center;verticalAlign=middle;resizable=0;points=[];" parent="63" vertex="1" connectable="0">
                    <mxGeometry x="-0.3205" y="5" relative="1" as="geometry">
                        <mxPoint x="656" y="195" as="offset"/>
                    </mxGeometry>
                </mxCell>
                <mxCell id="65" style="edgeStyle=none;rounded=0;html=1;entryX=0;entryY=0.5;entryDx=0;entryDy=0;" parent="1" source="62" target="66" edge="1">
                    <mxGeometry relative="1" as="geometry">
                        <mxPoint x="2620" y="230" as="targetPoint"/>
                    </mxGeometry>
                </mxCell>
                <mxCell id="67" value="Opinia pozytywna" style="edgeLabel;html=1;align=center;verticalAlign=middle;resizable=0;points=[];" parent="65" vertex="1" connectable="0">
                    <mxGeometry x="-0.3889" relative="1" as="geometry">
                        <mxPoint x="13" y="-10" as="offset"/>
                    </mxGeometry>
                </mxCell>
                <mxCell id="62" value="" style="rhombus;whiteSpace=wrap;html=1;" parent="1" vertex="1">
                    <mxGeometry x="2450" y="200" width="60" height="60" as="geometry"/>
                </mxCell>
                <mxCell id="66" value="" style="ellipse;whiteSpace=wrap;html=1;aspect=fixed;strokeWidth=4;" parent="1" vertex="1">
                    <mxGeometry x="2620" y="200" width="60" height="60" as="geometry"/>
                </mxCell>
                <mxCell id="74" style="edgeStyle=none;rounded=0;html=1;entryX=0;entryY=0.5;entryDx=0;entryDy=0;" parent="1" source="73" target="57" edge="1">
                    <mxGeometry relative="1" as="geometry">
                        <mxPoint x="1920" y="320" as="targetPoint"/>
                    </mxGeometry>
                </mxCell>
                <mxCell id="73" value="Określenie budżetu" style="rounded=0;whiteSpace=wrap;html=1;" parent="1" vertex="1">
                    <mxGeometry x="1900" y="200" width="120" height="60" as="geometry"/>
                </mxCell>
                <mxCell id="68" value="" style="ellipse;whiteSpace=wrap;html=1;aspect=fixed;strokeWidth=1;" parent="1" vertex="1">
                    <mxGeometry x="170" y="200" width="60" height="60" as="geometry"/>
                </mxCell>
            </root>
        </mxGraphModel>
    </diagram>
</mxfile>